<svg width="269" height="98" viewBox="0 0 269 98" fill="none" xmlns="http://www.w3.org/2000/svg">
<path d="M52.0426 4V6.2L22.4426 71.7H25.8426C31.8426 71.7 37.1092 69.8 41.6426 66C46.2426 62.1333 49.5426 56.6667 51.5426 49.6H53.3426L52.1426 74H0.942578V72.1L30.8426 6.2H26.7426C20.8092 6.2 16.3092 7.5 13.2426 10.1C10.1759 12.7 6.70924 18.0333 2.84258 26.1H1.04258L2.54258 4H52.0426ZM82.373 50.5H85.273V42.8C85.273 36.4667 84.9064 32.2333 84.173 30.1C83.5064 27.9 82.173 26.8 80.173 26.8C78.973 26.8 77.873 27.1333 76.873 27.8C75.9397 28.4 75.473 29.2667 75.473 30.4C75.473 31.4667 75.673 32.5667 76.073 33.7H78.573C79.1064 35.1 79.373 36.8 79.373 38.8C79.373 40.7333 78.5397 42.4333 76.873 43.9C75.2064 45.3 73.1064 46 70.573 46C64.8397 46 61.973 43.2333 61.973 37.7C61.973 29.5 68.9397 25.4 82.873 25.4C90.8064 25.4 96.273 26.7667 99.273 29.5C102.34 32.1667 103.873 37.1 103.873 44.3V64.6C103.873 68.0667 104.84 69.8 106.773 69.8C109.04 69.8 110.373 66.3667 110.773 59.5L112.273 59.6C112.006 65.4667 110.906 69.5 108.973 71.7C107.04 73.9 103.873 75 99.4731 75C91.473 75 86.873 72.5333 85.673 67.6C84.8064 70.1333 83.5064 72 81.773 73.2C80.0397 74.4 77.5064 75 74.173 75C64.3064 75 59.373 70.9667 59.373 62.9C59.373 58.1667 61.2397 54.9333 64.973 53.2C68.773 51.4 74.573 50.5 82.373 50.5ZM78.373 62.8C78.373 66.2667 78.5397 68.5 78.873 69.5C79.273 70.5 79.973 71 80.973 71C82.0397 71 83.0064 70.1667 83.873 68.5C84.8064 66.7667 85.273 64.4 85.273 61.4V52.1H84.573C80.4397 52.1 78.373 55.1333 78.373 61.2V62.8ZM148.779 47.1C148.779 40.2333 148.446 35.6333 147.779 33.3C147.113 30.9 145.813 29.7 143.879 29.7C141.946 29.7 140.213 30.9667 138.679 33.5C137.146 35.9667 136.379 39.3 136.379 43.5V61.8C136.379 64.6667 136.946 67.1 138.079 69.1C139.213 71.1 140.879 72.1 143.079 72.1C145.279 72.1 146.779 70.6333 147.579 67.7C148.379 64.7667 148.779 59.6333 148.779 52.3V47.1ZM136.179 26.4V34.3C138.779 28.3667 143.379 25.4 149.979 25.4C155.713 25.4 160.146 27.4667 163.279 31.6C166.479 35.7333 168.079 42 168.079 50.4C168.079 58.8 166.346 65 162.879 69C159.479 73 154.346 75 147.479 75C144.279 75 141.879 74.6 140.279 73.8C138.679 73 137.379 71.7667 136.379 70.1V96H149.279V97.8H112.279V96H117.779V28.2H112.479V26.4H136.179ZM185.768 19.5C182.235 19.5 179.702 18.6 178.168 16.8C176.702 15 175.968 12.7667 175.968 10.1C175.968 7.43333 176.768 5.23333 178.368 3.5C180.035 1.76666 182.535 0.899999 185.868 0.899999C189.202 0.899999 191.735 1.7 193.468 3.3C195.202 4.83333 196.068 7.06666 196.068 10C196.068 12.8667 195.235 15.1667 193.568 16.9C191.902 18.6333 189.302 19.5 185.768 19.5ZM170.668 26.4H195.168V72.2H200.768V74H171.068V72.2H176.568V28.2H170.668V26.4ZM207.807 59.7V28.2H202.307V26.4H207.807V13.5L226.407 8.9V26.4H239.407V28.2H226.407V61.9C226.407 65.0333 226.707 67.3333 227.307 68.8C227.973 70.2667 229.307 71 231.307 71C233.307 71 235.04 70 236.507 68C238.04 66 239.04 63.2667 239.507 59.8L241.207 60C240.673 64.6 239.207 68.2667 236.807 71C234.407 73.6667 230.44 75 224.907 75C219.373 75 215.14 73.9 212.207 71.7C209.273 69.5 207.807 65.5 207.807 59.7ZM258.962 56.2V47.6C258.962 41.8667 257.862 35.0667 255.662 27.2C253.529 19.2667 252.462 13.8667 252.462 11C252.462 8.13333 253.229 6.06666 254.762 4.8C256.362 3.53333 258.295 2.9 260.562 2.9C265.629 2.9 268.162 5.6 268.162 11C268.162 14.1333 266.995 19.6 264.662 27.4C262.329 35.2 261.162 41.9667 261.162 47.7V56.2H258.962ZM259.662 75C257.195 75 255.329 74.3 254.062 72.9C252.862 71.4333 252.262 69.6333 252.262 67.5C252.262 65.3 252.929 63.5 254.262 62.1C255.595 60.6333 257.429 59.9 259.762 59.9C262.095 59.9 263.962 60.5333 265.362 61.8C266.762 63 267.462 64.8 267.462 67.2C267.462 69.6 266.795 71.5 265.462 72.9C264.129 74.3 262.195 75 259.662 75Z" fill="white"/>
</svg>
