<svg width="108" height="40" viewBox="0 0 108 40" fill="none" xmlns="http://www.w3.org/2000/svg">
<path d="M20.817 2V2.88L8.97703 29.08H10.337C12.737 29.08 14.8437 28.32 16.657 26.8C18.497 25.2533 19.817 23.0667 20.617 20.24H21.337L20.857 30H0.377031V29.24L12.337 2.88H10.697C8.3237 2.88 6.5237 3.4 5.29703 4.44C4.07036 5.48 2.6837 7.61333 1.13703 10.84H0.417031L1.01703 2H20.817ZM32.9492 20.6H34.1092V17.52C34.1092 14.9867 33.9626 13.2933 33.6692 12.44C33.4026 11.56 32.8692 11.12 32.0692 11.12C31.5892 11.12 31.1492 11.2533 30.7492 11.52C30.3759 11.76 30.1892 12.1067 30.1892 12.56C30.1892 12.9867 30.2692 13.4267 30.4292 13.88H31.4292C31.6426 14.44 31.7492 15.12 31.7492 15.92C31.7492 16.6933 31.4159 17.3733 30.7492 17.96C30.0826 18.52 29.2426 18.8 28.2292 18.8C25.9359 18.8 24.7892 17.6933 24.7892 15.48C24.7892 12.2 27.5759 10.56 33.1492 10.56C36.3226 10.56 38.5092 11.1067 39.7092 12.2C40.9359 13.2667 41.5492 15.24 41.5492 18.12V26.24C41.5492 27.6267 41.9359 28.32 42.7092 28.32C43.6159 28.32 44.1492 26.9467 44.3092 24.2L44.9092 24.24C44.8026 26.5867 44.3626 28.2 43.5892 29.08C42.8159 29.96 41.5492 30.4 39.7892 30.4C36.5892 30.4 34.7492 29.4133 34.2692 27.44C33.9226 28.4533 33.4026 29.2 32.7092 29.68C32.0159 30.16 31.0026 30.4 29.6692 30.4C25.7226 30.4 23.7492 28.7867 23.7492 25.56C23.7492 23.6667 24.4959 22.3733 25.9892 21.68C27.5092 20.96 29.8292 20.6 32.9492 20.6ZM31.3492 25.52C31.3492 26.9067 31.4159 27.8 31.5492 28.2C31.7092 28.6 31.9892 28.8 32.3892 28.8C32.8159 28.8 33.2026 28.4667 33.5492 27.8C33.9226 27.1067 34.1092 26.16 34.1092 24.96V21.24H33.8292C32.1759 21.24 31.3492 22.4533 31.3492 24.88V25.52ZM59.5117 19.24C59.5117 16.4933 59.3784 14.6533 59.1117 13.72C58.8451 12.76 58.3251 12.28 57.5517 12.28C56.7784 12.28 56.0851 12.7867 55.4717 13.8C54.8584 14.7867 54.5517 16.12 54.5517 17.8V25.12C54.5517 26.2667 54.7784 27.24 55.2317 28.04C55.6851 28.84 56.3517 29.24 57.2317 29.24C58.1117 29.24 58.7117 28.6533 59.0317 27.48C59.3517 26.3067 59.5117 24.2533 59.5117 21.32V19.24ZM54.4717 10.96V14.12C55.5117 11.7467 57.3517 10.56 59.9917 10.56C62.2851 10.56 64.0584 11.3867 65.3117 13.04C66.5917 14.6933 67.2317 17.2 67.2317 20.56C67.2317 23.92 66.5384 26.4 65.1517 28C63.7917 29.6 61.7384 30.4 58.9917 30.4C57.7117 30.4 56.7517 30.24 56.1117 29.92C55.4717 29.6 54.9517 29.1067 54.5517 28.44V38.8H59.7117V39.52H44.9117V38.8H47.1117V11.68H44.9917V10.96H54.4717ZM74.3073 8.2C72.894 8.2 71.8807 7.84 71.2673 7.12C70.6807 6.4 70.3873 5.50666 70.3873 4.44C70.3873 3.37333 70.7073 2.49333 71.3473 1.8C72.014 1.10667 73.014 0.76 74.3473 0.76C75.6807 0.76 76.694 1.08 77.3873 1.72C78.0807 2.33333 78.4273 3.22667 78.4273 4.4C78.4273 5.54667 78.094 6.46667 77.4273 7.16C76.7607 7.85333 75.7207 8.2 74.3073 8.2ZM68.2673 10.96H78.0673V29.28H80.3073V30H68.4273V29.28H70.6273V11.68H68.2673V10.96ZM83.1227 24.28V11.68H80.9227V10.96H83.1227V5.8L90.5627 3.96V10.96H95.7627V11.68H90.5627V25.16C90.5627 26.4133 90.6827 27.3333 90.9227 27.92C91.1893 28.5067 91.7227 28.8 92.5227 28.8C93.3227 28.8 94.016 28.4 94.6027 27.6C95.216 26.8 95.616 25.7067 95.8027 24.32L96.4827 24.4C96.2693 26.24 95.6827 27.7067 94.7227 28.8C93.7627 29.8667 92.176 30.4 89.9627 30.4C87.7493 30.4 86.056 29.96 84.8827 29.08C83.7093 28.2 83.1227 26.6 83.1227 24.28ZM103.585 22.88V19.44C103.585 17.1467 103.145 14.4267 102.265 11.28C101.412 8.10667 100.985 5.94667 100.985 4.8C100.985 3.65333 101.292 2.82667 101.905 2.32C102.545 1.81333 103.318 1.56 104.225 1.56C106.252 1.56 107.265 2.64 107.265 4.8C107.265 6.05333 106.798 8.24 105.865 11.36C104.932 14.48 104.465 17.1867 104.465 19.48V22.88H103.585ZM103.865 30.4C102.878 30.4 102.132 30.12 101.625 29.56C101.145 28.9733 100.905 28.2533 100.905 27.4C100.905 26.52 101.172 25.8 101.705 25.24C102.238 24.6533 102.972 24.36 103.905 24.36C104.838 24.36 105.585 24.6133 106.145 25.12C106.705 25.6 106.985 26.32 106.985 27.28C106.985 28.24 106.718 29 106.185 29.56C105.652 30.12 104.878 30.4 103.865 30.4Z" fill="#004BB4"/>
</svg>
